<svg width="117" height="117" viewBox="0 0 117 117" fill="none" xmlns="http://www.w3.org/2000/svg">
<g clip-path="url(#clip0_1_222)">
<path fill-rule="evenodd" clip-rule="evenodd" d="M58.5088 116.992C90.716 116.992 117 90.7077 117 58.5002C117 26.2928 90.716 0.00872803 58.5088 0.00872803C26.284 0.00872803 0 26.2928 0 58.5002C0 90.7077 26.284 116.992 58.5088 116.992Z" fill="#5B4949"/>
<path fill-rule="evenodd" clip-rule="evenodd" d="M58.6987 1.14828C27.1129 1.14828 1.36426 26.9142 1.36426 58.4655C1.36426 90.0512 27.1129 115.8 58.6987 115.8C90.2497 115.8 116.016 90.0512 116.016 58.4655C116.016 26.9142 90.2497 1.14828 58.6987 1.14828ZM58.6987 114.798C27.6656 114.798 2.36588 89.4986 2.36588 58.4655C2.36588 27.4669 27.6656 2.14991 58.6987 2.14991C89.697 2.14991 115.014 27.4669 115.014 58.4655C115.014 89.4986 89.697 114.798 58.6987 114.798Z" fill="#D0D1D3"/>
<path fill-rule="evenodd" clip-rule="evenodd" d="M58.6987 4.65399C29.0472 4.65399 4.87 28.8312 4.87 58.4655C4.87 88.1171 29.0472 112.294 58.6987 112.294C88.3328 112.294 112.51 88.1171 112.51 58.4655C112.51 28.8312 88.3328 4.65399 58.6987 4.65399ZM58.6987 111.552C29.4616 111.552 5.61258 87.7026 5.61258 58.4655C5.61258 29.2456 29.4616 5.39658 58.6987 5.39658C87.9183 5.39658 111.768 29.2456 111.768 58.4655C111.768 87.7026 87.9183 111.552 58.6987 111.552Z" fill="#D0D1D3"/>
<path fill-rule="evenodd" clip-rule="evenodd" d="M80.1473 46.6187H37.2326C38.5796 47.7237 38.3378 50.2107 38.3378 50.2107L38.234 83.0571C37.7332 89.1014 44.5719 90.2066 44.5719 90.2066L50.9097 90.1376C54.7954 90.4314 57.6103 93.0215 58.6982 94.1959C59.0264 94.5413 59.1991 94.766 59.1991 94.766C59.1991 94.766 61.7029 90.5175 66.4002 90.2066L72.8069 90.2757C72.8069 90.2757 79.5767 89.1707 79.1452 83.1262V50.3143C79.1459 50.3143 78.7828 47.7239 80.1473 46.6187ZM78.6276 50.6252V82.7806C79.0418 88.7212 72.4449 89.8094 72.4449 89.8094L66.1939 89.7401C61.6175 90.0512 59.165 94.1956 59.165 94.1956C59.165 94.1956 59.0096 93.9886 58.6987 93.6603C57.6626 92.5207 54.8994 89.9649 51.0829 89.6713L44.9005 89.7401C44.9005 89.7401 38.2345 88.6524 38.7183 82.7115L38.8219 50.5213C38.8219 50.5213 38.9946 47.7755 38.1656 47.102H79.2323C78.2477 48.2765 78.6276 50.6252 78.6276 50.6252Z" fill="#D0D1D3"/>
<path fill-rule="evenodd" clip-rule="evenodd" d="M16.026 81.6237L16.5268 81.6065C25.1442 97.5289 41.4293 106.578 58.1288 106.578C75.8475 106.578 89.5939 97.3044 97.7101 85.0949C97.7101 85.0949 99.7999 82.1591 100.18 80.1038H100.525C100.145 82.1936 98.1073 85.181 98.1073 85.181C89.9045 97.5461 75.9851 106.923 58.0768 106.923C41.1703 106.923 24.7471 97.7361 16.026 81.6237Z" fill="#D0D1D3"/>
<path fill-rule="evenodd" clip-rule="evenodd" d="M96.3285 77.22C98.1766 78.8949 100.542 80.1038 100.542 80.1038C100.542 80.1038 97.3992 79.4478 97.4683 83.1262L97.3994 83.4022C97.3994 83.4022 97.0368 82.5563 96.3285 81.6237V81.3645C96.9675 82.2107 97.2958 82.9362 97.3129 82.9362V82.6944C97.3649 79.7068 99.7478 79.9484 99.9901 79.9656C100.007 79.9656 97.9691 78.9295 96.3285 77.4791V77.22ZM93.0994 79.1887C92.9092 79.1197 92.7194 79.0849 92.4777 79.0679C92.4777 77.4443 93.2718 75.8903 95.0331 75.7694C95.3962 76.2702 95.8452 76.7538 96.3285 77.22V77.4791C95.8277 77.0301 95.3614 76.5293 94.9988 76.0282C94.9988 76.0282 92.788 76.2354 92.6847 78.6361L92.6674 78.9467C94.3253 79.1715 95.5511 80.3628 96.3285 81.3645V81.6237C95.6034 80.6394 94.5157 79.5514 93.0994 79.1887ZM21.5349 77.2718C21.138 77.8417 20.6197 78.3771 20.067 78.8606C18.271 80.484 16.026 81.624 16.026 81.624C16.026 81.624 19.169 80.9677 19.1 84.6459L19.169 84.9052C19.169 84.9052 19.4799 84.1971 20.067 83.3509C20.7924 82.315 21.9494 81.0884 23.4691 80.6914C23.6591 80.6396 23.8663 80.6053 24.0908 80.5705V80.1906C24.0217 77.427 21.5349 77.2718 21.5349 77.2718ZM20.067 83.0571C19.5317 83.7997 19.2554 84.4039 19.2554 84.4039C19.2726 82.6081 18.5128 81.3302 16.6822 81.4165C16.665 81.3992 18.4955 80.4667 20.067 79.1369C20.6715 78.6361 21.2414 78.0662 21.6558 77.4791C22.3984 77.3927 23.9181 78.4462 23.9527 80.4149C22.1394 80.6739 20.8442 82.0037 20.067 83.0571Z" fill="#D0D1D3"/>
<path fill-rule="evenodd" clip-rule="evenodd" d="M93.7038 79.396L93.9801 79.5339C86.9512 90.9663 74.1201 100.326 58.4742 100.326C44.9523 100.326 31.0331 92.8486 23.0374 80.8464L23.331 80.7425C31.3094 92.762 44.9695 99.9461 58.4569 99.9461C74.0512 99.9466 86.6922 90.8283 93.7038 79.396ZM23.6073 82.8499L24.5916 84.1796L24.0217 84.6457C23.9181 84.6457 23.8663 84.6111 23.8318 84.6457C23.7627 84.6457 23.6764 84.715 23.6073 84.715C23.6073 84.7668 23.5725 84.8011 23.5725 84.8359L21.9146 85.9929C21.7592 86.0965 21.7592 86.2174 21.8456 86.3728C21.9146 86.4417 21.9492 86.4765 22.0355 86.4765C22.0701 86.5283 22.1564 86.4417 22.2255 86.4074L23.7625 85.3367L23.8315 85.2158C23.9524 85.1467 24.0215 85.1467 24.056 85.0604C24.1079 84.9913 24.1079 84.9567 24.1424 84.8704L24.7468 84.3696L25.6276 85.6475L25.0577 86.1313C24.9368 86.0965 24.9022 86.062 24.8677 86.0965C24.8332 86.1311 24.7123 86.1829 24.6432 86.1829C24.5914 86.2174 24.5569 86.2174 24.5569 86.2519L23.1065 87.2879C22.9165 87.4433 22.6918 87.5987 22.4157 87.6678C22.2257 87.7026 21.9149 87.6678 21.6558 87.4778C21.5004 87.3226 21.2759 87.1327 21.0341 86.8216C21.0341 86.7871 20.9996 86.718 20.9305 86.5971C20.8442 86.528 20.8442 86.4071 20.7751 86.3726C20.6887 86.2172 20.6542 86.1826 20.6542 86.1308C20.5851 85.9061 20.5851 85.7161 20.6197 85.5607C20.6542 85.4053 20.7233 85.3019 20.8096 85.1462C20.9651 85.0251 21.0689 84.9045 21.2759 84.7145L22.692 83.7301L22.7956 83.6438C22.882 83.6093 22.951 83.5749 22.9856 83.5402C22.9856 83.4541 22.9856 83.385 23.0374 83.2984L23.6073 82.8499ZM25.9732 85.9584L26.9748 87.0636L26.025 88.9803L26.6294 88.3934C26.7849 88.2897 26.7848 88.2034 26.7848 88.0134L27.3547 87.5126L28.2698 88.5485L27.7347 89.0496C27.6654 89.0841 27.5792 89.0841 27.5447 89.0841C27.5099 89.0841 27.4754 89.1359 27.3547 89.205L24.9368 91.3464L24.056 90.3966L24.9886 88.4799L24.3669 88.9805C24.2633 89.0498 24.2115 89.1359 24.1769 89.1707C24.1769 89.2398 24.1424 89.2398 24.1769 89.3604L23.6073 89.8615L22.7265 88.8599L23.2617 88.3588C23.3307 88.3588 23.4171 88.3936 23.4516 88.3936C23.4862 88.3936 23.5207 88.3245 23.607 88.2554L25.144 86.9084L25.2476 86.7875C25.2822 86.753 25.3685 86.7185 25.4031 86.6839V86.4419L25.9732 85.9584ZM28.6672 88.8596L29.8415 90.0164L29.3062 90.5863C29.2371 90.5518 29.2026 90.5863 29.1162 90.5863C29.1162 90.6211 29.0817 90.5863 29.0471 90.6211C29.0126 90.7072 28.9608 90.7072 28.9263 90.7763L27.5447 92.1924C27.4408 92.2787 27.3547 92.3824 27.3547 92.4171C27.2854 92.4689 27.2854 92.5032 27.32 92.6241L26.7848 93.1595L25.5933 91.9679L26.1286 91.4325C26.215 91.4671 26.2495 91.4671 26.284 91.4325C26.3704 91.4325 26.4395 91.398 26.474 91.3462L26.5949 91.191L27.9764 89.8613V89.7749C28.1319 89.6713 28.1664 89.5849 28.1319 89.395L28.6672 88.8596ZM30.0833 90.2757L32.95 92.7282L31.6548 94.2307L30.9122 93.609L31.4131 93.0391C31.5339 92.8491 31.5339 92.7282 31.4131 92.6073L29.8761 94.3688C29.8415 94.4549 29.807 94.524 29.7725 94.6106C29.7377 94.6451 29.7725 94.6797 29.807 94.766L29.3062 95.3359L28.011 94.2307L28.5118 93.6435C28.6154 93.6435 28.6672 93.6435 28.7018 93.609C28.7708 93.609 28.8054 93.5399 28.8917 93.4535L30.3769 91.7266C30.2733 91.6575 30.2215 91.5714 30.1524 91.623C30.1178 91.6575 30.0315 91.7266 29.9624 91.8475L29.4961 92.3485L28.8054 91.7786L30.0833 90.2757Z" fill="#D0D1D3"/>
<path fill-rule="evenodd" clip-rule="evenodd" d="M33.33 92.9177L36.0067 94.8003L35.126 95.9746L34.1244 95.2495L34.2107 95.1805C34.2798 95.0593 34.3143 94.9905 34.3143 94.9387C34.3489 94.8696 34.3143 94.8348 34.3143 94.8005C34.2453 94.6796 34.1589 94.6451 34.0553 94.5588L33.589 95.1805L34.2798 95.7158L33.779 96.4409L33.0882 95.9401L32.5529 96.6654C32.7083 96.6999 32.7428 96.6999 32.8292 96.7863C32.8637 96.8208 32.8982 96.7863 32.9328 96.8208C32.9328 96.7863 33.0191 96.7863 33.0882 96.6999C33.14 96.6999 33.1746 96.6308 33.2091 96.5618L33.3645 96.3545L34.3489 97.0974L33.4681 98.3578L30.7914 96.4754L31.2231 95.871C31.2577 95.871 31.3267 95.8189 31.4131 95.8189C31.4476 95.7501 31.4824 95.7156 31.5167 95.6292L31.5685 95.5601L32.7946 93.8677C32.8292 93.7987 32.8982 93.7639 32.9328 93.6775C32.8982 93.643 32.8982 93.6087 32.8982 93.5224L33.33 92.9177ZM38.718 96.6308C38.5626 96.4409 38.4242 96.2509 38.1481 96.0957L36.7145 95.2668L36.3519 95.0593L35.9202 95.7158C36.0065 95.7846 36.041 95.871 36.0065 95.9403C35.972 95.9748 35.972 96.0612 35.9202 96.2164L34.9013 97.9779C34.8149 98.0472 34.7458 98.1163 34.694 98.2026C34.6595 98.2374 34.5904 98.2374 34.5041 98.2374L34.1241 98.8591L35.9202 99.878C36.231 100.085 36.4728 100.189 36.6973 100.189H36.7145C36.939 100.189 37.1636 100.154 37.2672 99.9989C37.4571 99.878 37.6126 99.7398 37.6816 99.5844L38.6833 97.8575C38.8041 97.6327 38.9078 97.3912 38.9078 97.1667C38.9598 96.9762 38.8735 96.7863 38.718 96.6308ZM37.4228 97.2871L36.7148 98.4441L36.5421 98.7375C36.473 98.8931 36.4212 98.9968 36.3521 98.9968C36.2658 98.9968 36.1622 98.9968 36.0758 98.9277L35.9204 98.8586L36.7148 97.5116L37.1983 96.6999L37.3019 96.7517V96.6999C37.4228 96.7863 37.4919 96.8899 37.4919 96.9762C37.5437 97.0453 37.4919 97.1317 37.4228 97.2871ZM40.3414 100.309L41.5675 100.81L41.4811 100.965L41.4466 101.035C41.4466 101.155 41.3775 101.311 41.4121 101.345C41.4121 101.414 41.4466 101.501 41.533 101.535C41.602 101.57 41.7229 101.57 41.7575 101.57C41.8265 101.501 41.9129 101.466 41.9474 101.345V101.225V101.155C42.0165 101.035 41.9474 100.931 41.9474 100.879C41.8611 100.81 41.7229 100.724 41.533 100.534C41.3257 100.465 41.1876 100.275 41.0667 100.119C40.9458 99.9984 40.7904 99.8432 40.7213 99.7048C40.6868 99.5494 40.6868 99.3937 40.6868 99.2731C40.7213 99.1692 40.7904 99.0138 40.8767 98.772C41.1873 98.0122 41.8263 97.7361 42.7416 98.1676C43.3287 98.3573 43.7432 98.7372 44.1234 99.1692L43.7434 100.154L42.5518 99.7048L42.6382 99.5494C42.7073 99.3076 42.7073 99.1695 42.5173 99.0486C42.4137 99.0138 42.2583 99.0486 42.1719 99.2385C42.1549 99.2735 42.146 99.312 42.146 99.3509C42.146 99.3898 42.1549 99.4283 42.1719 99.4633C42.1719 99.5494 42.2065 99.6185 42.3273 99.7739C42.3619 99.7739 42.4828 99.8087 42.6037 99.9641C42.7073 100.05 42.8627 100.119 42.949 100.189C42.9836 100.275 43.0527 100.309 43.139 100.379C43.2081 100.534 43.2944 100.62 43.329 100.724C43.398 100.845 43.4326 101 43.3981 101.156C43.3981 101.311 43.3635 101.501 43.2944 101.726C43.0872 102.105 42.8627 102.382 42.5518 102.537C42.4137 102.606 42.2065 102.641 41.9474 102.606C41.7229 102.537 41.4466 102.485 41.1876 102.382C40.6004 102.105 40.0996 101.812 39.9096 101.38L40.3414 100.309ZM44.5896 99.0138L48.1989 100.119L47.6636 102.036L46.6965 101.76L46.8865 101.035C46.9728 100.845 46.921 100.724 46.7829 100.689V100.655L46.0923 102.882C46.0923 102.986 46.0403 103.107 46.0403 103.141C46.0403 103.176 46.1266 103.228 46.1266 103.297L45.8848 104.022L44.3306 103.521L44.5206 102.796C44.5896 102.796 44.6242 102.727 44.676 102.692C44.7105 102.606 44.7451 102.571 44.7796 102.45L45.4358 100.274C45.3495 100.24 45.2804 100.274 45.2113 100.309C45.1595 100.309 45.125 100.43 45.0905 100.533L44.9005 101.19L44.0543 100.931L44.5896 99.0138ZM50.7548 104.212C50.7203 104.143 50.7203 104.108 50.6857 104.022C50.7203 103.918 50.7203 103.797 50.6857 103.521L50.7548 100.655L49.2351 100.344L48.8379 100.275L47.6118 103.176C47.5427 103.331 47.5427 103.418 47.4909 103.487C47.4564 103.573 47.3873 103.608 47.3527 103.642L47.2319 104.367L48.648 104.644L48.8034 103.953C48.6825 103.918 48.6825 103.832 48.6825 103.677C48.717 103.607 48.717 103.573 48.717 103.573L49.2351 103.659L49.3387 103.676V103.832C49.3215 103.901 49.2869 103.97 49.2351 104.004C49.2178 104.022 49.1833 104.022 49.1488 104.022L49.0279 104.712L49.2351 104.764L50.6857 105.092L50.8239 104.367C50.7548 104.333 50.7894 104.298 50.7548 104.212ZM49.4078 102.796L49.2351 102.761L48.9933 102.727L49.2351 102.036L49.4596 101.466H49.4942L49.4078 102.796ZM51.4111 100.776L55.124 101.19L54.8995 103.176L53.9842 103.072L54.0533 102.347C54.0878 102.105 54.0187 102.036 53.8288 102.002L53.5525 104.333C53.5179 104.402 53.5179 104.523 53.5525 104.558C53.5525 104.593 53.587 104.593 53.6388 104.679L53.5525 105.404L51.9119 105.214L51.9809 104.489C52.0328 104.454 52.1018 104.368 52.1364 104.368C52.1709 104.299 52.1709 104.213 52.2227 104.109L52.4818 101.812C52.3263 101.812 52.2573 101.812 52.2227 101.847C52.2227 101.916 52.1709 102.037 52.1709 102.106L52.0673 102.831L51.1866 102.762L51.4111 100.776ZM55.4694 101.225L58.716 101.311L58.6812 102.796L57.4553 102.761V102.606C57.4899 102.485 57.4899 102.416 57.4553 102.347C57.4553 102.295 57.386 102.26 57.2999 102.192C57.2654 102.157 57.1445 102.157 56.9891 102.157V102.951L57.8007 102.986L57.7662 103.832H56.9545L56.92 104.713H57.1963C57.2308 104.713 57.2656 104.678 57.2999 104.678L57.4208 104.557V104.108L58.6469 104.143L58.6122 105.68L55.3482 105.593V104.833C55.4173 104.833 55.4173 104.747 55.4691 104.678C55.4691 104.644 55.4691 104.592 55.5037 104.453V104.402L55.5727 102.347C55.5727 102.26 55.5727 102.157 55.5382 102.105C55.5037 102.07 55.5037 102.036 55.4691 102.001V101.225H55.4694ZM59.2511 104.143L60.5811 104.108V104.367C60.5811 104.488 60.65 104.592 60.65 104.644C60.65 104.747 60.7708 104.713 60.8917 104.713C60.9265 104.713 61.0471 104.713 61.0819 104.644C61.1508 104.592 61.1855 104.488 61.1508 104.367C61.1508 104.367 61.1508 104.333 61.116 104.333V104.212C61.0817 104.108 61.0471 104.022 60.9263 103.953C60.8915 103.953 60.7018 103.918 60.4254 103.832C60.2009 103.832 60.0107 103.763 59.8553 103.677C59.6656 103.607 59.4754 103.573 59.3893 103.417C59.3032 103.331 59.1823 103.176 59.1823 103.072C59.1823 102.917 59.0962 102.761 59.0962 102.537C59.0269 101.656 59.5104 101.225 60.5118 101.19C61.1162 101.155 61.6861 101.259 62.1869 101.535L62.2217 102.572L60.961 102.64V102.485C60.961 102.26 60.8917 102.105 60.702 102.07C60.5466 102.105 60.4602 102.192 60.4257 102.382C60.4257 102.485 60.4605 102.572 60.5466 102.606C60.5466 102.727 60.702 102.727 60.8404 102.796C60.892 102.796 60.9613 102.796 61.151 102.831C61.3064 102.883 61.4273 102.883 61.5314 102.917C61.6518 102.986 61.7211 103.038 61.8072 103.072C61.9627 103.072 62.0663 103.141 62.1872 103.262C62.2738 103.331 62.3426 103.452 62.4117 103.607C62.4637 103.711 62.4983 103.918 62.4983 104.143C62.4983 104.592 62.4117 104.937 62.2219 105.179C62.1183 105.334 61.9281 105.438 61.6866 105.559C61.4969 105.559 61.2378 105.628 60.9267 105.628C60.2705 105.628 59.7009 105.593 59.3209 105.334L59.2511 104.143ZM68.5075 103.228L68.1276 101.345C68.0072 100.879 67.8513 100.533 67.5059 100.43C67.3162 100.344 67.0571 100.309 66.7288 100.309C66.5911 100.309 66.4525 100.327 66.28 100.344C65.9349 100.465 65.6756 100.534 65.4513 100.689C65.2611 100.81 65.0541 100.965 64.9848 101.19C64.916 101.415 64.95 101.691 64.9848 102.002L65.3647 103.832C65.3995 104.108 65.4856 104.247 65.5549 104.402C65.6758 104.558 65.7447 104.678 65.9001 104.747C66.0555 104.868 66.2452 104.903 66.4702 104.868H66.7288C66.8842 104.851 67.0571 104.834 67.2469 104.799C67.5059 104.747 67.7822 104.592 67.9379 104.592C68.0415 104.558 68.283 104.402 68.3526 104.247C68.4387 104.109 68.5423 103.988 68.5423 103.832C68.5768 103.608 68.5423 103.452 68.5075 103.228ZM67.1608 103.763C67.1608 103.832 67.0571 103.867 67.0226 103.867C66.8672 103.902 66.7981 103.867 66.7288 103.763L66.6772 103.608L66.2452 101.691C66.2452 101.466 66.28 101.311 66.4702 101.311C66.5911 101.276 66.6772 101.311 66.7288 101.415C66.7636 101.449 66.7808 101.501 66.7808 101.57L67.2128 103.522C67.2469 103.608 67.2128 103.711 67.1608 103.763ZM68.5075 99.9984L71.4606 99.0833L71.8926 100.534L70.8216 100.914L70.7355 100.689C70.7007 100.62 70.7007 100.499 70.6146 100.465C70.6146 100.43 70.6146 100.43 70.5453 100.43C70.4765 100.378 70.3899 100.43 70.3208 100.465H70.1656L70.3897 101.259L71.2361 101L71.4951 101.846L70.666 102.105L70.8562 102.64C70.8562 102.675 70.8562 102.675 70.8909 102.727C70.8909 102.796 70.9252 102.882 70.9598 102.951C71.0118 102.951 71.0807 102.986 71.1152 102.986L71.3915 103.711L69.8545 104.212L69.5955 103.487C69.6298 103.366 69.6298 103.211 69.5955 103.107L68.9738 101.104C68.939 100.965 68.9045 100.879 68.9045 100.845C68.8529 100.81 68.7836 100.724 68.7495 100.724L68.5075 99.9984ZM78.6967 99.9984C78.6619 99.9984 78.5758 99.9293 78.5413 99.9293C78.507 99.8948 78.4204 99.8432 78.3859 99.7739C78.3516 99.7393 78.2309 99.5494 78.0753 99.4287L76.4001 97.0628L76.2792 97.1149L74.6386 97.8575L75.433 100.966C75.4851 101.07 75.4851 101.19 75.5191 101.26C75.5191 101.346 75.5192 101.415 75.4849 101.501L75.83 102.158L76.2788 101.933L77.1595 101.536L76.8144 100.845C76.7107 100.88 76.6589 100.81 76.5553 100.724V100.586L77.1597 100.31V100.465C77.2459 100.534 77.1945 100.655 77.1597 100.69L77.4708 101.346L79.0078 100.655L78.6967 99.9984ZM76.2788 99.7564L76.2445 99.7736L75.8988 98.4787L76.2788 99.0138L76.6587 99.5491L76.2788 99.7564ZM77.2458 96.6308L78.6967 95.7846L80.0435 97.0974V97.0456L79.5086 95.2838L80.9935 94.4549L81.3735 95.0939C81.3387 95.1459 81.3046 95.2148 81.3046 95.2838C81.3389 95.3359 81.3735 95.3702 81.4255 95.4738L82.496 97.2873C82.5308 97.3909 82.5996 97.4425 82.5996 97.5118C82.6862 97.5118 82.755 97.5466 82.8414 97.5809L83.2561 98.2026L81.84 99.0143L81.4601 98.3926C81.4601 98.2717 81.4948 98.2374 81.4601 98.2026C81.4601 98.1335 81.374 98.0474 81.3392 97.9265L81.2356 97.8227L80.7348 96.9076L81.4598 99.239L81.0799 99.4637L79.2668 97.7886L79.8885 98.8075C79.9228 98.8075 79.9228 98.8593 79.9574 98.8939C79.9574 98.9627 80.0094 99.0145 80.0783 99.0145C80.1476 99.0838 80.1476 99.0838 80.2685 99.0838L80.6827 99.6883L79.5086 100.431L79.1287 99.7746C79.1635 99.6539 79.1635 99.4985 79.0766 99.3947L79.0076 99.3076L78.0059 97.5807L77.9366 97.5116C77.9018 97.3907 77.7469 97.2871 77.6603 97.3216L77.2458 96.6308ZM81.3387 94.1786L83.9809 92.2614L84.8617 93.4533L83.8605 94.1786L83.7564 94.0575C83.7048 93.9886 83.6703 93.9196 83.6355 93.8677C83.5146 93.833 83.4806 93.833 83.411 93.833C83.3249 93.8677 83.2556 93.9539 83.1693 94.0229L83.6353 94.6446L84.2915 94.1438L84.8269 94.8346L84.1706 95.3356L84.706 96.0607C84.7403 96.0262 84.7921 95.9398 84.8609 95.9055C84.8957 95.8708 84.9303 95.7844 84.9303 95.7844C84.9823 95.7499 84.9823 95.6808 84.9303 95.6292C84.8955 95.5601 84.8266 95.5256 84.7921 95.439L84.6712 95.2838L85.6728 94.524L86.5881 95.7846L83.9802 97.7015L83.4799 97.0971C83.4799 97.0453 83.4799 97.0108 83.5142 96.9417C83.4799 96.8553 83.4453 96.8208 83.376 96.7517L83.3249 96.7172L82.0986 95.0246C82.0643 94.9557 81.9949 94.8694 81.9949 94.8346C81.9088 94.8346 81.8741 94.8 81.8052 94.8L81.3387 94.1786ZM89.5246 92.1235C89.4553 92.1581 89.421 92.1581 89.3344 92.0717C89.3001 92.0717 89.2308 92.0369 89.1447 92.0026L88.9202 91.7263C88.8509 91.5884 88.73 91.5016 88.6439 91.5016C88.5403 91.4328 88.4194 91.3809 88.3849 91.3809C88.3155 91.4671 88.1604 91.5016 88.0392 91.5361V91.5014C88.1947 91.3116 88.2294 91.0869 88.1606 90.9317C88.074 90.7415 88.0052 90.4997 87.8495 90.31C87.625 90.0853 87.3835 89.9646 87.1244 89.9301C86.917 89.861 86.7445 89.9128 86.6063 89.9819C86.5891 89.9819 86.5716 89.9989 86.5543 90.0164C86.3473 90.12 86.2092 90.2412 86.0535 90.3618L84.5165 91.7779L85.0173 92.313H85.1728L85.3282 92.4684L86.6061 93.9018L86.6582 93.9536L86.6925 94.0227C86.8133 94.109 86.8827 94.2299 86.8827 94.2645C86.9342 94.3335 86.9342 94.4196 86.9342 94.4892L87.4355 95.0243L88.6441 93.8845L88.1606 93.3494C88.0392 93.384 87.8843 93.3494 87.815 93.2631L87.3835 92.7623C87.5732 92.6071 87.6941 92.5723 87.7634 92.6071C87.8843 92.6071 87.9704 92.6932 88.0392 92.7623C88.074 92.7623 88.1606 92.8831 88.3155 93.0386C88.4196 93.2285 88.5746 93.3494 88.6955 93.453C88.7648 93.5394 88.8857 93.6085 88.9545 93.643L90.0255 92.6586L89.5246 92.1235ZM86.8824 92.0026L86.8131 92.0717L86.6061 91.8815L86.1569 91.4328L86.3123 91.2773C86.3816 91.2428 86.5025 91.2085 86.6061 91.2255L86.6234 91.2428C86.6922 91.2428 86.8131 91.2773 86.934 91.3809C87.0033 91.5016 87.0381 91.5882 87.0381 91.7261C87.0897 91.7781 87.0381 91.8815 86.8824 92.0026ZM87.3832 89.0841L88.5746 87.858L89.0754 88.3933V88.5485C89.0754 88.5828 89.1102 88.6349 89.1447 88.6349C89.1968 88.6696 89.2308 88.704 89.3344 88.8248L90.716 90.1546C90.8369 90.2755 90.8714 90.3445 90.9062 90.3445C90.9582 90.3964 91.0616 90.3963 91.148 90.3963L91.7181 90.9317L90.561 92.106L89.9909 91.5709C89.9909 91.4671 90.0257 91.4328 89.9909 91.4328C89.9561 91.3809 89.9221 91.2773 89.8873 91.191L89.7664 91.1217L88.3849 89.7749L88.3155 89.7058C88.1947 89.6197 88.0738 89.5506 87.9183 89.6197L87.3832 89.0841ZM91.3377 87.0291L91.0619 86.753C90.941 86.7182 90.8369 86.6491 90.8028 86.6491C90.7508 86.6491 90.6474 86.7182 90.5958 86.753C90.5265 86.8739 90.561 86.9948 90.7162 87.1499L92.2532 88.4451C92.3573 88.5142 92.4086 88.566 92.4782 88.5142C92.5643 88.5142 92.5991 88.5142 92.6331 88.4797C92.7025 88.3586 92.7545 88.2897 92.7025 88.2549C92.6677 88.1686 92.6331 88.1341 92.5643 88.065L92.0635 87.6332L92.9094 86.5971L94.0492 87.5296C94.0144 87.7544 94.0144 87.9441 93.9283 88.1343C93.8595 88.2897 93.7902 88.4451 93.7038 88.566C93.6345 88.756 93.5141 88.8599 93.3927 89.015C93.1682 89.2914 92.8579 89.5159 92.6677 89.6713C92.4432 89.7922 92.2189 89.8265 92.0114 89.7922C91.7869 89.7922 91.5627 89.6367 91.3377 89.4468L89.8353 88.2206C89.179 87.6337 89.2308 86.9948 89.87 86.1483C90.0255 85.9583 90.1463 85.8722 90.3365 85.7166C90.4569 85.613 90.5956 85.4921 90.8369 85.4228C90.9923 85.3367 91.1307 85.2676 91.2516 85.181L92.2189 85.9929L91.3377 87.0291ZM95.8105 85.7166L96.7778 84.335L96.1216 83.886C96.0868 83.9206 96.0522 83.9206 95.9661 83.9206C95.9314 83.9206 95.8625 83.9206 95.7764 83.886C95.7071 83.886 95.5514 83.7997 95.3272 83.6961L93.5311 82.9362L92.6677 82.5735L91.5627 84.1451L93.5311 86.1138L93.825 86.4074C93.9459 86.5282 94.0147 86.5625 94.1013 86.6664C94.1013 86.7182 94.1356 86.7527 94.1356 86.8736L94.7745 87.2536L95.5864 86.0274L94.982 85.6475C94.8611 85.6475 94.8266 85.682 94.6709 85.6475C94.5848 85.5957 94.5848 85.5612 94.5848 85.5612L94.982 84.9913C95.0168 84.9913 95.0509 85.0258 95.0856 85.0603C95.2065 85.1467 95.2065 85.2158 95.1717 85.3367L95.8105 85.7166ZM93.8936 84.9913L93.5309 84.6459L92.944 84.0762L92.9788 84.0244L93.5311 84.3353L94.1356 84.6459L93.8936 84.9913Z" fill="#D0D1D3"/>
<path d="M60.2355 65.1314L60.3741 66.2022L60.4262 66.1033L60.2537 65.1043L60.2355 65.1314Z" fill="#D0D1D3"/>
<path d="M61.9278 62.282L60.1839 64.6997L60.2537 65.1043L61.9278 62.6274L63.6205 60.106L61.9278 63.2836L60.4261 66.1033L60.5117 66.5993L61.4966 65.805L61.9278 64.6997L64.0004 59.3807L61.9278 62.282ZM65.9516 66.7893L63.7586 67.3592L61.8938 68.6889L64.0004 68.9307L65.9516 67.8948L69.9931 65.7707L65.9516 66.7893ZM62.7225 68.6199L63.5684 67.5839L65.9516 66.945L69.1985 66.0642L65.9516 67.3419L62.7225 68.6199ZM55.4521 75.8212L55.4348 75.8903L53.8633 82.0555L55.4348 79.1024L57.0236 76.063L56.92 74.3533L55.4521 75.8212ZM55.4348 78.0317L54.1568 81.2611L55.4348 76.5465L55.6766 75.6312L56.6955 74.8026L55.4348 78.0317ZM61.4618 75.1822L60.3393 74.077L60.3187 74.2998L60.1491 74.2152L60.2952 74.5471L60.1491 76.1148L61.6172 78.6016L63.4303 81.641L61.6172 75.7349L61.4618 75.1822ZM63.1024 80.8811L61.6175 78.3253L60.1839 75.8214L60.299 74.5553L61.6172 77.5484L63.1024 80.8811ZM66.0898 73.2135L64.1386 72.1601L62.4287 72.2637L63.8968 73.7489L66.0898 74.3188L70.1138 75.3377L66.0898 73.2135ZM63.7066 73.5071L62.8779 72.4882L66.0898 73.7661L69.3194 75.0441L66.0898 74.1633L63.7066 73.5071ZM51.5146 73.0063L47.5427 75.3722L51.5146 74.1461L54.0187 73.3862L55.193 72.1256L53.0689 72.0908L51.5146 73.0063ZM54.7095 72.2464L51.5146 73.628L48.3025 75.0268L51.5146 73.1792L53.3797 72.1083L54.7095 72.2464ZM53.1034 68.948L55.4348 69.1034L54.0705 67.6355L51.4628 66.8238L47.5427 65.6148L51.4628 67.9636L53.1034 68.948ZM48.2852 65.9774L51.4628 67.3592L54.6404 68.7235L53.3625 68.9134L51.4628 67.8082L48.2852 65.9774ZM55.6075 62.0573L54.036 59.0869L55.6075 65.2521L55.6247 65.3212L57.0236 67.0308L57.2138 65.0794L55.6075 62.0573ZM55.8665 65.4941L55.6075 64.5613L54.3295 59.8811L55.6075 63.0934L56.8857 66.323L55.8665 65.4941Z" fill="#D0D1D3"/>
<path d="M62.7398 72.2982L64.2247 72.1083L76.4517 70.4334L64.2247 68.9828L62.5841 68.7925L64.2247 66.6686L69.9582 59.2601L64.2247 63.6465L60.5291 66.4787L59.4065 57.9994L58.7503 52.8531L58.0768 58.2755L57.0579 66.4784L53.2241 63.5426L47.5252 59.2083L53.2241 66.5478L54.8992 68.7064L53.2241 68.9309L40.9283 70.6409L53.2241 72.074L54.9165 72.2642L53.2241 74.4574L47.5252 81.7971L53.2241 77.4625L56.8679 74.6821L58.0768 83.213L58.7849 88.2384L59.4065 82.5743L60.3393 74.2674L64.2247 77.2723L69.9582 81.7278L64.2247 74.2499L62.7398 72.2982ZM53.2243 65.9947L49.6323 61.5912L53.2243 65.166L56.5746 68.516L55.4003 68.6544H55.383L53.2243 65.9947ZM53.2243 77.0646L49.615 79.9659L53.2243 76.3738L56.3328 73.2826L56.6782 72.9372L56.8166 74.1808L53.2243 77.0646ZM58.077 70.8649L56.6264 72.0392L53.2243 71.7283L42.0338 70.6576L53.2243 70.6231H58.4052L58.077 70.8649ZM58.7678 70.312L58.077 69.5176L57.3863 68.7232L58.077 61.401L58.7335 54.5105L58.7678 69.2758V70.312ZM64.225 64.0435L67.8686 61.1079L64.225 64.7345L61.1855 67.7737L60.7195 68.2399L60.5813 66.962L64.225 64.0435ZM59.4068 80.0867L58.7851 87.3054V71.0205L59.4068 71.9356L60.063 72.8506L59.4068 80.0867ZM60.1839 70.485H59.0616L59.4068 70.1914L60.8229 69.0516L64.225 69.3624L75.6573 70.4502L64.225 70.485H60.1839ZM68.0933 79.6377L64.2247 75.7521L61.3923 72.9199L60.9781 72.5052L62.2387 72.3671L64.2245 74.8196L68.0933 79.6377ZM64.225 41.2133C64.1902 41.1615 64.1561 41.0924 64.1213 41.0406L63.9832 40.8677L63.8623 41.0406C63.8623 41.0406 62.8779 42.4222 62.1183 41.5587L61.8938 41.7659C62.7052 42.6985 63.6378 41.7832 63.9832 41.386C64.0693 41.5069 64.1561 41.5932 64.225 41.6968C65.0714 42.6812 65.7619 42.8021 65.7792 42.8021L65.8312 42.5258C65.8312 42.5258 65.123 42.3704 64.225 41.2133Z" fill="#D0D1D3"/>
<path d="M76.1406 43.0093L76.089 42.9748C76.0197 42.9403 75.9508 42.923 75.8988 42.9057C75.4673 42.7676 75.1737 42.7848 74.966 42.8712C74.7935 42.9403 74.6902 43.0611 74.6208 43.1648C73.654 42.6812 72.0822 41.7659 70.6834 40.5225C70.4244 40.2808 70.1658 40.039 69.9236 39.7627C68.8186 38.5884 67.9724 37.1723 67.903 35.5662L67.6267 25.3255C67.6267 25.3082 67.437 22.666 64.8291 22.666L64.2247 22.6142L58.3703 22.0788L58.025 22.0443H57.9731C57.9731 22.0443 57.8004 22.0788 57.5241 22.1995C57.0924 22.3894 56.4016 22.8041 55.849 23.6676C55.499 23.6323 55.1474 23.615 54.7956 23.6158C54.0418 23.599 53.2885 23.6686 52.5505 23.823C51.5662 24.0303 50.6336 24.3929 49.9256 25.0146C48.993 25.8438 48.4059 27.1215 48.7167 29.1075L49.0106 29.142C49.0106 29.1247 49.7531 26.9833 51.6528 27.2596C51.1865 27.3805 50.5648 27.6223 50.1676 28.0022L50.3058 28.2613C50.3058 28.2613 51.2038 28.1056 52.5508 28.4512C53.3413 28.6571 54.0976 28.9771 54.7958 29.401C55.383 29.7464 55.9874 30.1954 56.6091 30.7826C56.5746 31.0935 56.3155 32.423 54.7958 34.651C54.2432 35.4626 53.5006 36.3952 52.5508 37.4486C51.2728 38.8647 49.5807 40.4878 47.37 42.3013C47.1973 42.4395 47.0418 42.5603 46.8692 42.6985C46.8173 42.733 46.7828 42.7848 46.731 42.8194C45.5394 42.4565 45.5394 43.5102 45.5394 43.5102V43.562L45.5567 43.5963C44.106 41.9214 42.6209 42.7158 42.4136 42.8364C41.3429 43.0784 41.8092 44.08 42.0164 44.4082C41.2911 45.1335 41.7401 46.2215 42.5348 46.4805C43.7436 46.6187 43.9852 46.1524 43.9852 45.8243C45.3322 46.8086 46.2822 46.705 46.8692 46.3939C47.0937 46.2733 47.2491 46.1524 47.37 46.0312C47.439 45.9449 47.5081 45.8761 47.5427 45.824C47.7844 46.2212 48.2162 46.4803 48.2162 46.4803L48.2852 46.4975C49.4768 46.8256 49.6495 46.2558 49.6323 45.9104C51.0138 46.7909 51.9636 46.6875 52.5508 46.4284C53.0171 46.2039 53.2416 45.8758 53.2243 45.8931L53.3282 45.7377C53.5697 46.1867 54.0707 46.4803 54.0878 46.4803L54.1396 46.4975C54.3986 46.5836 54.6231 46.6184 54.7958 46.6184C55.3139 46.5836 55.5039 46.1867 55.5211 45.8931C56.3501 46.4457 57.0063 46.6184 57.5244 46.6184C57.8698 46.6184 58.1461 46.5321 58.3706 46.4112C58.8198 46.2039 59.0268 45.8761 59.0095 45.8931C59.0443 45.8413 59.0789 45.7722 59.1136 45.7204C59.3381 46.1694 59.8557 46.463 59.8557 46.4803C60.2357 46.7393 61.2718 46.5666 61.2718 45.9104C62.6534 46.7909 63.638 46.6875 64.2249 46.4284C64.6221 46.273 64.8466 46.0312 64.9159 45.9449C65.1577 46.3421 65.5892 46.6011 65.5892 46.6011L65.6585 46.6359C66.7635 46.6877 67.0053 46.3251 67.0053 45.997C68.3868 46.8432 69.3542 46.6705 69.9238 46.4114C70.3731 46.2042 70.5976 45.9279 70.5976 45.9797H70.6148C70.6664 45.8761 70.7184 45.7724 70.7698 45.6861C70.9948 46.1524 71.5474 46.4632 71.5474 46.4805L71.6162 46.4978C72.5142 46.8604 72.9284 46.2733 72.963 45.9106C75.4155 47.4994 76.6246 45.8413 76.6418 45.8933H76.6586C77.5569 44.3736 76.1581 43.0093 76.1406 43.0093ZM54.7958 24.013L55.452 24.0303L57.5244 27.5878L57.6625 27.8123L57.5244 27.7777L56.5573 27.5705C56.4019 27.4669 55.5557 26.897 54.7958 26.1199C54.1741 25.4979 53.6042 24.7383 53.5006 23.9957L54.7958 24.013ZM48.9587 28.5203C48.8379 26.9661 49.3559 25.9299 50.1331 25.2391C50.8066 24.6692 51.6873 24.3238 52.5508 24.1511C52.758 24.0993 52.9825 24.0648 53.1898 24.0303C53.3281 24.9455 54.0532 25.8436 54.7958 26.5516C55.2794 27.0179 55.7802 27.3978 56.091 27.6223L54.7958 27.4323L52.5508 27.0867L51.8945 26.9831L51.9118 27.0004C50.2712 26.6207 49.3559 27.8123 48.9587 28.5203ZM54.7958 29.0384C53.9669 28.5721 53.207 28.2956 52.5508 28.1404C51.8082 27.9504 51.2038 27.9156 50.8066 27.9156C51.4628 27.5357 52.3263 27.4323 52.3263 27.4323V27.363L52.5508 27.3978L54.7958 27.7429L55.9183 27.8984L54.8994 29.1072C54.8649 29.0902 54.8303 29.0557 54.7958 29.0384ZM47.5254 45.5652C47.5254 45.6 47.5081 45.6173 47.4908 45.6516C47.4736 45.6688 47.4563 45.7034 47.439 45.7209C47.439 45.7382 47.4045 45.7727 47.37 45.8245C47.2836 45.9108 47.1109 46.0663 46.8692 46.1699C46.2993 46.4635 45.2976 46.5671 43.8297 45.3928L43.6052 45.5827C43.6052 45.5827 44.0542 46.2908 42.7247 46.1872C42.5348 46.0663 41.5674 45.3928 42.3793 44.6502L42.483 44.5638L42.4139 44.4429C42.4139 44.4429 42.1203 44.0112 42.1203 43.614C42.1376 43.5104 42.1551 43.424 42.2239 43.3377C42.2932 43.2514 42.3966 43.1823 42.5866 43.1477L42.6211 43.1305C42.6211 43.1132 43.8818 42.3188 45.2288 43.7522C45.367 43.8903 45.5051 44.0457 45.626 44.2355C45.7642 44.4254 45.9023 44.6327 46.0232 44.8747L46.2995 44.7365L45.8505 43.5965L45.8332 43.5449C45.8505 43.424 45.9541 42.9232 46.8694 43.2166C46.9212 43.2166 46.9557 43.2338 47.0075 43.2514C47.0594 43.3204 47.2148 43.4931 47.3702 43.7349C47.4565 43.8903 47.5602 44.0803 47.612 44.2875L47.6811 44.9265C47.6635 45.1507 47.5772 45.3925 47.5254 45.5652ZM58.992 45.5652C58.992 45.6 58.9752 45.6173 58.9577 45.6516C58.9405 45.6688 58.923 45.7034 58.923 45.7209C58.8882 45.7727 58.6985 45.9799 58.3703 46.1526C58.1631 46.2735 57.8695 46.3598 57.5241 46.3598C56.9715 46.3598 56.2289 46.1351 55.2964 45.3928L55.0716 45.5827C55.0716 45.5827 55.3652 46.0317 54.7953 46.1699C54.6572 46.2044 54.4499 46.2044 54.1909 46.1872C54.0009 46.0663 53.0339 45.3928 53.8455 44.6502L53.9491 44.5638L53.8801 44.4429C53.8801 44.4429 53.5865 44.0112 53.6037 43.614C53.6037 43.5104 53.621 43.424 53.6901 43.3377C53.7592 43.2514 53.8628 43.1823 54.0527 43.1477L54.0873 43.1305C54.0873 43.1132 54.3636 42.9405 54.7953 42.906C55.2789 42.8542 55.9869 42.975 56.695 43.7522C56.8329 43.8903 56.971 44.0457 57.0919 44.2355C57.2301 44.4254 57.3682 44.6327 57.4891 44.8747L57.5237 44.8574L57.7654 44.7365L57.5237 44.1148L57.3164 43.5965L57.2992 43.5449C57.3164 43.4759 57.351 43.2859 57.5237 43.1995C57.6791 43.1132 57.9381 43.0787 58.3699 43.2166C58.4044 43.2338 58.4389 43.2514 58.4735 43.2514C58.5253 43.3204 58.6807 43.4931 58.8364 43.7349C58.9225 43.8903 59.0261 44.0803 59.0781 44.2875L59.147 44.9265C59.1302 45.1507 59.0614 45.3925 58.992 45.5652ZM70.5285 45.6516C70.5285 45.6688 70.5112 45.7034 70.4937 45.7379C70.4764 45.7549 70.4589 45.7897 70.4417 45.807C70.4244 45.8415 70.2519 46.066 69.9236 46.2387C69.3539 46.5323 68.335 46.6877 66.8326 45.4616L66.6076 45.6688C66.6076 45.6688 67.0568 46.3596 65.7269 46.2733C65.5371 46.1524 64.5698 45.4789 65.3817 44.7363L65.4853 44.6499L65.4165 44.5291C65.4165 44.5291 65.1227 44.0973 65.1227 43.7001C65.1399 43.5963 65.1575 43.4929 65.2263 43.4238C65.2956 43.3375 65.3992 43.2684 65.5889 43.2163L65.6237 43.1993C65.6237 43.1993 66.8844 42.4049 68.2312 43.8383C68.3698 43.9762 68.5075 44.1319 68.6288 44.3218C68.7665 44.5118 68.9047 44.719 69.0256 44.9608L69.3019 44.8224L68.8531 43.6653L68.8358 43.6308C68.8531 43.4926 68.9567 42.9918 69.9236 43.3027C69.9584 43.32 69.9756 43.32 70.0097 43.3375C70.0617 43.3893 70.2171 43.562 70.3728 43.821C70.4589 43.9762 70.5453 44.1664 70.6146 44.3736L70.6834 44.9951C70.6662 45.2371 70.5801 45.4789 70.5285 45.6516ZM71.3917 42.8366C71.1327 42.906 70.9597 43.0439 70.8736 43.1995C70.8043 43.3032 70.7695 43.424 70.7527 43.5449H70.4764C70.3035 43.2859 70.1486 43.1477 70.1486 43.1477L70.0965 43.1132C70.0445 43.0787 69.9756 43.0614 69.9236 43.0439C68.8358 42.6294 68.6109 43.2511 68.5768 43.5277H68.2657C66.9189 42.2497 65.641 42.8887 65.4681 42.975C65.2988 43.0216 65.1443 43.1108 65.0193 43.2341C64.9327 43.3204 64.8811 43.4068 64.8639 43.5104H64.8466C64.6868 43.2789 64.4736 43.0893 64.2249 42.9578C63.638 42.6467 62.8781 42.6987 62.774 43.4929H62.6704C61.2716 42.0423 59.9248 42.7333 59.7351 42.8366C59.5101 42.906 59.3379 43.0096 59.2511 43.1477C59.1778 43.2369 59.1302 43.3444 59.1134 43.4586H58.9405C58.7675 43.1823 58.5951 43.0096 58.5951 43.0096L58.5433 42.975C58.4915 42.9578 58.4224 42.9232 58.3706 42.906C57.9907 42.7851 57.7143 42.7851 57.5244 42.8366C57.179 42.9578 57.0926 43.2686 57.0581 43.4413H56.8854C56.108 42.6642 55.3482 42.5433 54.7958 42.5951C54.3468 42.6467 54.0532 42.8023 53.9669 42.8366C53.7424 42.906 53.5697 42.9923 53.4661 43.1132C53.397 43.2166 53.3452 43.3032 53.3106 43.424L53.1034 43.4065C53.004 43.2663 52.8943 43.1336 52.7753 43.0096L52.7235 42.975C52.6652 42.9602 52.6076 42.9429 52.5508 42.9232C51.9464 42.716 51.601 42.8196 51.411 43.0096C51.2901 43.1305 51.221 43.2859 51.2038 43.4065H50.962C50.7662 43.2116 50.5455 43.0433 50.3058 42.906C50.8929 42.6987 52.0672 41.3345 52.0672 41.3172L51.8427 41.1272C51.8427 41.1272 49.7186 43.5795 50.772 40.9718L50.4957 40.8509C50.064 41.9216 49.9258 42.4915 49.9949 42.7505C49.0106 42.3706 48.2509 42.7678 48.0953 42.8366C47.9193 42.8794 47.7582 42.969 47.629 43.0959C47.5599 43.1823 47.5081 43.2686 47.4736 43.3722H47.439C47.4205 43.3402 47.3972 43.3111 47.37 43.2859C47.2145 43.0787 47.0764 42.9578 47.0764 42.9578L47.0591 42.9405C47.1627 42.8714 47.2663 42.7851 47.37 42.6987C49.5632 40.92 51.2556 39.3139 52.5508 37.8978C53.3551 37.0358 54.1049 36.1245 54.7958 35.1693C56.8336 32.3026 56.9199 30.731 56.9199 30.731L56.9372 30.662L56.8681 30.6101C56.2982 30.0575 55.7111 29.6085 55.1585 29.2631L56.2637 27.9507L57.5244 28.1406L58.3706 28.2788L58.8023 28.3306L58.6296 28.037L58.3706 27.6053L57.5244 26.1719L56.1946 23.8923L56.1601 23.8233H56.1256C56.5746 23.098 57.1272 22.718 57.5244 22.5281C57.7661 22.4072 57.9561 22.3726 58.0079 22.3554L58.3706 22.3899L64.2249 22.9253L64.8118 22.9768H64.8291C67.1607 22.9768 67.3161 25.343 67.3161 25.343L67.4543 30.1784C67.2468 30.0575 66.8153 29.7121 66.6599 28.9177L66.3488 28.9523C66.3488 28.9523 66.3488 31.0592 65.4853 29.6606L65.2263 29.8158C65.2263 29.8158 65.6235 30.5758 65.0018 31.612C64.6566 32.1301 64.4321 32.4409 64.2935 32.4409H64.2247C64.1386 32.3719 64.0177 32.1128 63.8795 31.6466L63.5684 31.7329C63.7759 32.3891 63.9656 32.7173 64.2247 32.7518H64.3108C64.5871 32.7345 64.8636 32.3891 65.2608 31.7674C65.5887 31.2494 65.658 30.7658 65.658 30.4032C66.2797 31.0767 66.5215 30.3513 66.6076 29.6949C66.936 30.3168 67.4195 30.5068 67.4195 30.5068L67.4543 30.4204L67.4711 30.973H67.4022C67.4022 30.9903 67.3334 32.9072 66.6251 31.9056L66.3488 32.0092C66.3488 32.0092 66.4524 34.0815 65.641 33.2526L65.5201 33.1317L65.3992 33.2699C65.3992 33.2871 64.7775 34.2024 64.2249 33.6846C64.1901 33.6325 64.1561 33.5982 64.1213 33.5464L63.8623 33.7191C63.9604 33.8608 64.0832 33.9836 64.2249 34.0818C64.795 34.3924 65.3299 33.8573 65.5549 33.5982C66.4872 34.4099 66.6426 33.1492 66.6599 32.4239C67.0914 32.8559 67.3504 32.6139 67.5059 32.234L67.5231 33.2701L67.4195 33.2528C67.4195 33.2528 67.0912 34.928 66.7633 34.3924L66.6078 34.1163L66.487 34.4272C66.487 34.4272 66.1418 35.4288 65.6583 34.7726L65.4165 34.9625C66.0209 35.7744 66.4702 35.1525 66.6772 34.7726C67.0571 35.1698 67.3677 34.5308 67.5406 33.9782L67.5922 35.5842C67.61 35.8951 67.6442 36.2059 67.7136 36.5168C67.5754 36.8103 66.6081 38.7963 66.4872 36.1884L66.1766 36.1368C66.1766 36.1368 65.2265 38.5546 64.9848 36.2577L64.95 35.9123L64.7082 36.1714C64.7082 36.1714 64.5012 36.4307 64.2247 36.5861C63.9308 36.7588 63.5684 36.8106 63.4303 36.1543L63.1369 36.2234C63.3267 37.1732 63.8102 37.1732 64.2247 36.9487C64.4149 36.8624 64.5873 36.7242 64.7082 36.6034C65.0193 38.7966 65.8137 37.605 66.2279 36.7933C66.2627 37.2423 66.3488 37.5704 66.4354 37.7777L66.1763 37.7949L66.3313 40.3681C65.8998 40.0054 65.1054 39.142 65.3817 37.9501L65.0711 37.881C64.6564 39.7116 66.4179 40.8169 66.4179 40.8169L66.6769 40.9895L66.6597 40.6785L66.4867 37.8983C66.8839 38.5891 67.5229 37.5529 67.834 36.9658C68.2307 38.1919 69.0083 39.2796 69.9233 40.2124L70.0269 40.316L69.9408 40.3678L70.9597 42.1639C70.8043 42.1811 70.4937 42.1466 69.9236 41.6803C69.6991 41.4904 69.44 41.2313 69.1292 40.9032L68.8701 41.0413L69.2158 42.3538C68.8701 42.3538 68.0414 42.1639 67.437 40.765L67.1607 40.8857C68.0414 42.9407 69.4403 42.6472 69.4403 42.6472L69.6132 42.6126L69.5612 42.4572L69.3194 41.5422C69.5439 41.7494 69.7509 41.9221 69.9238 42.043C70.8739 42.7165 71.2881 42.3538 71.2881 42.3538L71.3747 42.2672L71.3226 42.1639L70.5455 40.7996C71.409 41.5594 72.3247 42.1984 73.1362 42.6992C72.2379 42.4049 71.5126 42.7676 71.3917 42.8366Z" fill="#D0D1D3"/>
<path d="M55.1585 26.1889L55.3485 26.1542L55.5557 26.1026C55.4866 25.7054 54.9685 25.4291 54.9858 24.9628C54.8649 24.9628 54.8304 24.8765 54.7958 24.8247L54.7613 24.7901C54.6577 24.6692 54.6404 24.5654 54.5023 24.6174C54.3123 25.1528 54.5023 25.4979 54.7958 25.8263C54.8995 25.9472 55.0376 26.0681 55.1585 26.1889ZM64.2249 29.3492C64.4494 29.0729 64.8466 28.4685 64.8466 27.8123H64.536C64.536 28.1749 64.3979 28.5203 64.2249 28.7966C64.0525 29.0902 63.8798 29.2802 63.8798 29.2974L64.1043 29.5044C64.1041 29.5047 64.1559 29.4356 64.2249 29.3492ZM53.2416 39.6073L52.9653 39.4864C52.758 40.0045 52.6199 40.4189 52.5508 40.7125C52.4472 41.1442 52.4645 41.3688 52.5508 41.4724C52.9135 41.8696 54.5886 39.9699 54.5886 39.9527L54.3641 39.7454C54.3468 39.7627 52.2227 42.1977 53.2416 39.6073ZM57.5244 39.141C57.2138 39.5037 55.5557 41.3515 56.471 38.9338L56.1774 38.8302C54.8476 42.3531 56.7646 40.4362 57.5244 39.6073C57.6971 39.4173 57.818 39.2964 57.818 39.2964L57.5762 39.089L57.5244 39.141ZM57.5244 29.9882C57.4899 29.9364 57.4553 29.9019 57.4381 29.8501L57.1617 30.0055C57.2656 30.1782 57.4038 30.3163 57.5244 30.4545C57.8525 30.7653 58.2325 30.9553 58.3706 31.0071L58.4397 31.0416L58.5433 30.7481C58.5433 30.7481 58.4742 30.7308 58.3706 30.679C58.1634 30.5581 57.7834 30.3336 57.5244 29.9882ZM62.6532 39.59C63.4824 40.3671 63.9832 39.59 64.2249 38.9163C64.3804 38.5018 64.4494 38.1219 64.4494 38.1219L64.2249 38.0701L64.1388 38.0528C64.1388 38.0701 63.7589 40.3496 62.74 39.2271L62.5846 39.0544L62.481 39.2616C62.481 39.2616 61.7554 40.8159 60.9785 39.6761L60.7368 39.8488C61.6 41.1443 62.3771 40.0563 62.6532 39.59ZM62.1869 25.3946C62.1696 25.3773 60.4254 24.0648 58.3704 24.0996C58.2495 24.0996 58.1286 24.1169 58.0077 24.1169H57.4724L57.4035 24.4104L57.5242 24.4795L57.835 24.6522L58.0765 25.2912C58.0938 25.3257 58.1629 25.602 58.3701 25.792C58.6639 26.0683 59.2334 26.2065 60.2007 25.3257L62.0655 25.6711L62.1869 25.3946Z" fill="#D0D1D3"/>
<path fill-rule="evenodd" clip-rule="evenodd" d="M20.965 33.7357C20.8789 33.7184 20.758 33.6838 20.5681 33.6318C20.359 33.5682 20.1516 33.4991 19.9461 33.4248L19.5835 33.3039L16.1987 32.1469L14.9553 31.7324L13.1938 34.7891L16.1987 37.3795L17.5457 38.519C17.9256 38.8301 18.1156 39.0889 18.1501 39.2964L19.3763 40.0044L19.5835 39.6245L20.7405 37.6213L19.5835 36.965L19.5144 36.9132C19.3763 37.0686 19.2036 37.1032 18.9793 36.9996L18.7893 36.8441L19.3763 35.7905C19.4108 35.8077 19.4281 35.8253 19.4799 35.8253C19.5144 35.8598 19.5489 35.8771 19.5835 35.8943C19.6008 35.8943 19.6008 35.9116 19.618 35.9116C19.808 36.0325 19.8771 36.1706 19.8425 36.3606L21.0687 37.0689L22.6402 34.3403L21.414 33.632C21.2759 33.7357 21.1205 33.7702 20.965 33.7357ZM17.5284 35.9289L16.1987 34.8409L15.6633 34.4092L15.6806 34.3916L16.1987 34.5816L17.9429 35.2208L17.5284 35.9289ZM33.848 15.9136C33.6926 15.6891 33.6581 15.4646 33.7444 15.2747L32.9845 14.0831L30.8431 15.4819L31.603 16.6562C31.8275 16.6562 32.0002 16.7771 32.1556 17.0016L33.0191 18.3311L33.0018 18.3484L29.8936 16.0861L29.5309 16.3278L27.6313 17.5712L28.4084 18.7456C28.6156 18.7628 28.8056 18.8837 28.961 19.1082L29.0819 19.3155L29.5309 20.0062L31.1024 22.4064C31.206 22.5791 31.2578 22.7003 31.2751 22.7691C31.2751 22.8554 31.2578 22.942 31.1888 23.0454L31.9659 24.237L34.0382 22.89L33.2611 21.7157C33.1057 21.6984 32.9848 21.6639 32.9157 21.595C32.8294 21.5259 32.7257 21.3878 32.6049 21.1978L31.8623 20.0405L31.8795 20.0235L35.0744 22.2167L35.7306 21.8023L37.0949 20.9042L35.7306 18.8146L33.848 15.9136ZM17.5975 40.1081C17.4939 40.1081 17.3557 40.0735 17.183 40.0047L16.6304 39.8147C16.4926 39.7548 16.3473 39.7141 16.1984 39.6938C15.9912 39.6591 15.8012 39.6591 15.6631 39.7284C15.4559 39.8147 15.2314 40.022 15.0069 40.3501L14.9896 40.3328C15.0414 39.8493 14.9205 39.4693 14.6615 39.2103C14.5231 39.0721 14.3852 38.9513 14.2125 38.8476C14.0395 38.744 13.8496 38.6404 13.6426 38.5713L13.5908 38.5541C13.2108 38.4159 12.8482 38.3641 12.5201 38.4159C11.7947 38.5193 11.2249 39.1067 10.8449 40.1774L9.53245 43.7349L10.8622 44.2184C11.0176 44.0803 11.2249 44.063 11.4839 44.1666L12.5201 44.5293L14.9205 45.41L15.0414 45.4618C15.2484 45.5311 15.404 45.6 15.5074 45.669C15.6283 45.7552 15.6974 45.859 15.7319 45.9972L16.1982 46.1526L17.0271 46.4634L18.0633 43.614L16.7508 43.1305C16.5781 43.2513 16.4054 43.2859 16.198 43.2166C16.1807 43.2166 16.1462 43.2166 16.1289 43.1995L15.0409 42.8023L15.0755 42.716C15.2481 42.2497 15.559 42.1116 16.0253 42.2667L16.198 42.3361L16.8369 42.5606C16.8715 42.5778 17.0442 42.6296 17.3723 42.7333C17.4414 42.7505 17.5277 42.7851 17.6486 42.8196C17.7695 42.8714 17.8904 42.8887 17.994 42.9059C18.0976 42.9232 18.2012 42.9405 18.3048 42.9405L19.2028 40.4364L17.9076 39.9701C17.7875 40.0563 17.6839 40.1081 17.5975 40.1081ZM13.6428 42.0077L13.6255 42.0422L13.5392 42.2667L12.5203 41.8868L12.0022 41.6968L12.1058 41.4205C12.1922 41.196 12.3303 41.0576 12.5203 41.0061C12.6757 40.9715 12.8832 40.9888 13.1075 41.0752C13.3492 41.1615 13.5219 41.2824 13.6255 41.4205C13.7292 41.576 13.7292 41.7659 13.6428 42.0077ZM22.0012 28.8139L23.0374 29.6255C23.2619 29.8155 23.4173 29.9709 23.4864 30.0918C23.5036 30.1611 23.5209 30.2472 23.5036 30.3336C23.4864 30.4199 23.4346 30.5063 23.3655 30.5926L23.1755 30.8517L20.1706 28.503L19.9289 28.3303C19.8425 28.2612 19.7734 28.1922 19.7216 28.1404C19.6698 28.0886 19.618 28.0195 19.6008 27.9677H19.5835C19.5317 27.8641 19.4971 27.7604 19.5144 27.6395L18.4094 26.7588L16.5443 29.1593L17.6496 30.0227C17.8568 29.9537 18.064 29.9882 18.2713 30.1609L19.5837 31.1798L21.2589 32.4923L21.397 32.5959C21.6215 32.7858 21.7251 32.9758 21.6906 33.183L22.8131 34.0638L26.3879 29.4874L23.3485 27.1042L22.0012 28.8139ZM30.1696 23.6503C30.0835 23.5983 29.9624 23.4776 29.807 23.2877L29.5307 22.9423L27.5792 20.5418C27.4929 20.4209 27.424 20.3346 27.372 20.2655C27.3202 20.1964 27.3029 20.1446 27.2856 20.1101C27.2511 20.0237 27.2684 19.9029 27.3029 19.7647L26.4222 18.6767L24.0735 20.5764L24.9543 21.6816C25.1615 21.6471 25.3687 21.7507 25.5414 21.9752L25.645 22.0958L27.8383 24.8071L28.011 25.0144C28.2009 25.2561 28.2527 25.4636 28.1837 25.6706L29.0989 26.7586L29.5307 26.3959L31.4303 24.8589L30.5668 23.788C30.3769 23.7367 30.2387 23.7021 30.1696 23.6503ZM41.3084 17.0534C41.2393 17.0016 41.1702 16.8632 41.0666 16.6562L39.3052 12.8742L39.3224 12.8569C39.5642 12.7361 39.7714 12.8569 39.9441 13.2021L40.497 14.4109L42.0858 13.6684L40.5831 10.4222L35.7304 12.6845L34.3661 13.3235L35.7304 16.242L35.8858 16.5701L37.4576 15.8275L36.9222 14.6705C36.8186 14.4805 36.7841 14.3251 36.7841 14.204C36.8013 14.1006 36.8877 13.997 37.0604 13.9106L38.8218 17.6753C38.9773 18.0035 38.9945 18.2625 38.8737 18.4352L39.4781 19.7131L42.2067 18.4522L41.6022 17.1573C41.4638 17.1398 41.3775 17.1052 41.3084 17.0534ZM106.759 47.7411L103.081 48.3801L102.995 48.3974C102.649 48.4665 102.408 48.4146 102.269 48.2592L101.406 48.3974L100.888 48.501L101.406 51.4886L101.924 54.3726L104.756 53.8718L104.359 51.6268L103.997 51.6958C103.755 51.7304 103.565 51.7476 103.444 51.7304C103.323 51.6958 103.237 51.6268 103.202 51.5231L103.098 51.2641C103.081 51.1777 103.046 51.0741 103.029 50.9533L104.618 50.6769L104.877 52.2139L106.414 51.9376L106.155 50.4006L107.554 50.1589L107.571 50.2282C107.623 50.5563 107.623 50.7808 107.554 50.9014C107.468 51.0223 107.278 51.1087 106.966 51.1607L106.725 51.2125L107.122 53.4573L109.764 52.991L108.711 47.1197L107.329 47.3612C107.243 47.5512 107.053 47.6893 106.759 47.7411ZM107.882 55.0634L107.64 55.0806L103.944 55.2015C103.755 55.2186 103.634 55.2015 103.564 55.167C103.496 55.1324 103.426 55.0634 103.357 54.9598L101.941 55.0116L102.027 57.4638L103.443 57.4293C103.53 57.2911 103.616 57.2045 103.72 57.1873C103.823 57.1527 103.979 57.1182 104.221 57.1182L105.602 57.0664V57.1009L102.079 58.6897L102.149 61.0902L108.106 60.8829C108.382 60.8829 108.59 60.952 108.711 61.1247L110.127 61.0902L110.023 58.5343L108.624 58.5861C108.52 58.7588 108.331 58.8624 108.054 58.8799L106.466 58.9317V58.9144L109.989 57.4295L109.902 54.7355L108.486 54.7698C108.365 54.9598 108.176 55.0634 107.882 55.0634ZM11.5705 50.9878L10.3098 50.746C10.1026 50.7112 9.96466 50.6424 9.87808 50.5733C9.77446 50.5042 9.73992 50.3661 9.79173 50.1761L12.5203 50.7112L13.8673 50.9705C14.2127 51.0396 14.4372 51.1778 14.5063 51.3677L15.9051 51.644L16.1987 50.107L16.475 48.691L16.1987 48.6391L15.0934 48.4146C14.9898 48.501 14.9035 48.5698 14.8171 48.5873C14.7481 48.6046 14.5926 48.5873 14.3681 48.5526L12.5203 48.1901L10.258 47.7584V47.7411C10.3098 47.4648 10.5343 47.3612 10.897 47.4303L12.2094 47.6893L12.5203 46.0833L12.5376 45.9624H12.5203L9.03188 45.2889L7.7194 52.0067L11.2424 52.6972L11.5705 50.9878ZM10.1371 67.4801L12.5203 67.1865L13.8328 67.0311L13.9364 67.0138C14.2818 66.9793 14.5063 67.0311 14.6444 67.204L16.0433 67.0311L15.3179 61.0904L12.5203 61.4358L12.4512 61.453L12.5203 62.0748L12.7275 63.7156L13.0902 63.6635C13.3492 63.6465 13.5219 63.6465 13.6428 63.6635C13.7637 63.6983 13.85 63.7844 13.8846 63.8883C13.9191 63.9574 13.9364 64.0435 13.9709 64.1473C13.9882 64.2334 14.0055 64.3373 14.0227 64.4582L12.5201 64.6481H12.4339L12.244 63.0939L10.6897 63.2838L10.8797 64.8379L9.46361 65.0108V64.9417C9.4118 64.6136 9.42907 64.3891 9.51542 64.2857C9.60153 64.1648 9.79149 64.0785 10.1026 64.0437L10.3616 64.0092L10.068 61.7469L7.40855 62.0748L8.13387 67.9982L9.53269 67.8255C9.63631 67.6355 9.84354 67.5146 10.1371 67.4801ZM9.34273 59.847L9.58474 59.864L12.5203 60.0197L13.2802 60.0542C13.4701 60.0715 13.6083 60.089 13.6601 60.1233C13.7292 60.1751 13.7982 60.2442 13.85 60.348L15.2661 60.4342L15.387 57.9819L13.9709 57.9128C13.8846 58.0337 13.781 58.1028 13.6773 58.1201C13.5737 58.1546 13.4183 58.1546 13.1938 58.1371L12.5203 58.1028L11.795 58.0682L11.8123 58.0337L12.5203 57.7744L15.4561 56.7555L15.577 54.3378L12.5203 54.1826L9.63631 54.0272C9.35999 54.0099 9.17003 53.9236 9.04915 53.7336L7.65032 53.6645L7.51217 56.2032L8.92826 56.2895C9.04915 56.0995 9.23911 56.0305 9.51542 56.0477L11.1042 56.1168V56.1513L7.46036 57.3257L7.3222 60.0024L8.72103 60.0888C8.85918 59.9161 9.06641 59.8297 9.34273 59.847ZM17.1312 70.2432C16.9413 69.5179 16.6307 68.8962 16.1987 68.4124C16.026 68.2054 15.8188 68.0154 15.5943 67.8427L13.0556 68.5333L13.6773 70.8649L14.7999 70.5711C14.9898 70.5022 15.1452 70.5022 15.2661 70.5365C15.387 70.5708 15.4561 70.6744 15.5079 70.8303C15.577 71.1239 15.4216 71.3309 15.0244 71.4348L12.5203 72.1083L11.5532 72.3673C11.156 72.4709 10.9142 72.3846 10.8279 72.091C10.7415 71.7804 10.9142 71.5732 11.3114 71.4693L12.0195 71.3139L11.3978 68.9655L9.25638 69.5524C9.13549 69.9323 9.04915 70.4161 9.01461 70.9685C8.9797 71.5145 9.03217 72.0626 9.17003 72.5921C9.67084 74.4399 10.6552 75.1825 12.1404 74.7853L12.5203 74.6817L15.5079 73.8698C15.7481 73.8208 15.9804 73.7395 16.1987 73.628C16.6477 73.4035 16.9585 73.0929 17.1312 72.6954C17.2694 72.4019 17.3385 72.0735 17.3557 71.6765C17.3557 71.2966 17.3039 70.8649 17.1658 70.3641L17.1312 70.2432ZM100.231 40.8161C100.283 40.7643 100.387 40.6777 100.542 40.5571C100.71 40.4126 100.883 40.2743 101.061 40.1426L101.406 39.849L105.188 36.8787L103.582 33.7184L101.406 34.3573L98.073 35.3415C97.6069 35.4971 97.2788 35.5144 97.1061 35.4278L95.8454 36.084L97.0888 38.5188L98.3495 37.8798C98.2979 37.6726 98.3668 37.4999 98.5745 37.379L98.8163 37.2927L99.3686 38.3634C99.3514 38.3806 99.3171 38.3979 99.2825 38.4325C99.231 38.4497 99.1789 38.4843 99.1444 38.5015C98.9374 38.6051 98.7817 38.5879 98.6436 38.4497L97.3829 39.0884L98.8165 41.8863L100.077 41.2471C100.059 41.0924 100.128 40.937 100.231 40.8161ZM101.406 36.3779L102.546 36.0152V36.0325L101.406 36.896L100.646 37.4831L100.266 36.7578L101.406 36.3779ZM94.6706 29.6083L94.3773 29.85C94.1871 30.0055 94.0317 30.1091 93.9281 30.1436C93.8072 30.1782 93.6863 30.1609 93.6002 30.1091C93.5309 30.0573 93.462 29.9882 93.3927 29.9191C93.3239 29.8673 93.2546 29.781 93.1857 29.6944L94.4116 28.6584L95.4132 29.8673L96.6051 28.8484L95.6034 27.6566L96.6916 26.7415L96.7432 26.8106C96.9502 27.0524 97.0543 27.2424 97.0543 27.3805C97.0543 27.5357 96.9329 27.7086 96.6916 27.8986L96.5014 28.0713L97.9691 29.8153L100.024 28.1056L96.1903 23.5294L95.1026 24.4274C95.1199 24.6519 95.0165 24.8592 94.7915 25.0491L92.2186 27.2078L91.9423 27.4323L91.8557 27.5014C91.5967 27.7257 91.3722 27.795 91.1652 27.7257L90.077 28.6412L92.2189 31.1798L93.9283 33.2176L96.139 31.3525L94.6706 29.6083ZM89.9393 24.0302L89.179 24.8937C89.0413 25.0491 88.9204 25.1528 88.7995 25.1871C88.6954 25.2218 88.5745 25.1871 88.4369 25.0664C88.2119 24.8764 88.2294 24.6174 88.5057 24.3066L90.8541 21.5953C91.1304 21.2844 91.3895 21.2153 91.614 21.4226C91.8557 21.6296 91.8389 21.8888 91.5624 22.1994L91.0616 22.735L92.2186 23.7367L92.8919 24.3238L94.3428 22.6485C94.2219 22.2515 94.0317 21.8195 93.7383 21.3362C93.4663 20.8607 93.116 20.4345 92.7022 20.0756C92.5496 19.9383 92.3881 19.8114 92.2186 19.6956C90.9752 18.8149 89.9045 18.9012 89.0238 19.9201L87.5041 21.6816L86.727 22.5623C86.1741 23.2013 85.9498 23.823 86.0359 24.4447C86.088 24.7556 86.2261 25.0839 86.4331 25.4118C86.6406 25.7226 86.9339 26.0508 87.3139 26.3962L87.4175 26.4825C87.4523 26.4998 87.4695 26.5168 87.5041 26.5343C88.2812 27.2078 89.1274 27.5532 90.0254 27.605L91.7694 25.619L89.9393 24.0302ZM99.679 45.1162C99.7479 45.358 99.8515 45.5997 99.9724 45.8413C100.094 46.1005 100.215 46.3421 100.353 46.5666C100.611 46.9983 100.957 47.3435 101.406 47.62C101.423 47.62 101.441 47.6373 101.475 47.6548L105.05 46.4112L104.135 43.7519L102.684 44.2525L102.822 44.6497L102.338 44.8224C102.079 44.9087 101.872 44.9433 101.7 44.9433C101.579 44.9605 101.475 44.9087 101.406 44.7878C101.371 44.7533 101.354 44.7015 101.337 44.6324C101.268 44.4424 101.302 44.3043 101.406 44.1834C101.475 44.0971 101.579 44.0452 101.717 43.9934L105.05 42.8537C105.516 42.681 105.81 42.7673 105.913 43.0782C106.017 43.3717 105.844 43.6135 105.412 43.7517L104.928 43.9244L105.706 46.1866L107.605 45.5304C107.916 44.5461 107.899 43.5099 107.519 42.4219C106.897 40.6086 105.844 39.9524 104.359 40.4532L101.406 41.4894L101.043 41.6103C99.5061 42.1456 99.0398 43.2681 99.627 44.9948L99.679 45.1162ZM107.709 63.0246L104.273 62.4895C103.444 62.3513 102.788 62.4895 102.321 62.9039C102.062 63.1112 101.872 63.3877 101.699 63.7329C101.566 64.0193 101.467 64.3208 101.405 64.6309C101.389 64.7517 101.354 64.8726 101.337 65.0108L101.319 65.1489C101.198 65.8743 101.233 66.5478 101.405 67.1695C101.49 67.444 101.6 67.71 101.734 67.9639L104.341 68.3783L104.721 65.9776L103.581 65.8052C103.374 65.7704 103.236 65.7188 103.133 65.6322C103.046 65.5461 103.012 65.4253 103.046 65.2696C103.098 64.976 103.322 64.8549 103.72 64.9069L107.277 65.4768C107.692 65.5459 107.865 65.7186 107.83 66.0294C107.778 66.3233 107.536 66.4441 107.122 66.3921L106.414 66.2539L106.034 68.6374L108.228 68.9828C108.503 68.6719 108.78 68.2747 109.022 67.7909C109.281 67.2901 109.453 66.772 109.54 66.2369C109.833 64.337 109.229 63.2663 107.709 63.0246ZM49.4768 13.2714L47.2491 13.824L47.3354 14.1867C47.4045 14.4285 47.4218 14.6184 47.4045 14.7393C47.3872 14.8602 47.3354 14.9465 47.2318 14.9983C47.1455 15.0329 47.0764 15.0674 46.9728 15.102C46.8864 15.1365 46.7828 15.171 46.6792 15.2056L46.2822 13.6513L47.8017 13.2714L47.4218 11.7519L45.9023 12.1319L45.5569 10.7503L45.6433 10.733C45.9541 10.6465 46.1786 10.6465 46.2995 10.6985C46.4377 10.7676 46.5413 10.9575 46.6106 11.2511L46.6794 11.5102L48.8899 10.9575L48.2337 8.34986L42.4484 9.80049L42.7938 11.1648C42.9838 11.2511 43.1219 11.4238 43.2083 11.7174L44.1063 15.3267L44.1238 15.4303C44.2099 15.7584 44.1754 16.0002 44.0375 16.1556L44.3656 17.5199L50.0127 16.1211L50.1681 16.0693L50.0127 15.4649L49.4768 13.2714ZM106.898 70.3813L106.57 70.4159L106.276 70.4504L103.254 70.9512L102.373 70.6749C102.218 70.6233 102.097 70.5713 102.027 70.5197C101.959 70.4852 101.907 70.3818 101.838 70.2261L101.406 70.1053L100.49 69.8117L99.6102 72.7129L100.957 73.1274C101.061 73.0413 101.181 72.9895 101.285 72.9895C101.32 72.9895 101.371 72.9895 101.406 73.0065C101.509 73.0238 101.63 73.0413 101.769 73.0929L102.684 73.3692L104.912 75.5279L105.015 75.6312L105.136 75.7524C105.188 75.7869 105.24 75.856 105.309 75.9423C105.326 75.9769 105.343 76.0112 105.361 76.0632C105.378 76.115 105.378 76.1496 105.395 76.1841L106.742 76.5988L107.468 74.1981L106.432 73.8873C106.052 73.7664 105.637 73.4726 105.222 73.0238C105.844 72.8856 106.345 72.8856 106.707 72.9893L107.744 73.3171L108.573 70.6233L107.226 70.2086C107.139 70.2947 107.019 70.3468 106.898 70.3813ZM87.6593 18.677C87.8147 18.4522 87.9876 18.3313 88.1946 18.3313L88.9717 17.157L87.5041 16.1899L86.8303 15.7582L86.0532 16.9498C86.1568 17.1398 86.1225 17.347 85.9844 17.5715L85.1036 18.9185L85.0864 18.9012L85.8805 15.1538L83.6182 13.6688L82.8584 14.8604C82.9277 15.0677 82.8931 15.2749 82.7375 15.5167L82.6166 15.7237L80.6481 18.7633L80.5961 18.8151C80.4925 18.9878 80.4063 19.0742 80.337 19.1087C80.2682 19.1605 80.1821 19.1605 80.0607 19.1605L79.2836 20.3521L80.6481 21.2328L81.3559 21.6991L82.1331 20.5075C82.0763 20.3956 82.058 20.2682 82.081 20.1449C82.1158 20.041 82.2019 19.9031 82.3232 19.6959L83.0831 18.5388L83.0999 18.5561L82.3921 22.3726L84.4126 23.6851L87.5041 18.936L87.6593 18.677ZM60.5811 12.7706C60.5638 13.0642 60.529 13.2712 60.4602 13.4096C60.4254 13.4786 60.3561 13.5304 60.2872 13.5647C60.1934 13.6004 60.0938 13.618 59.9934 13.6168L59.6828 13.5995L59.8037 9.80025V9.4894C59.8037 9.38579 59.821 9.29944 59.8385 9.21309C59.8553 9.14378 59.8728 9.07494 59.8901 9.02313C59.9421 8.90224 60.0109 8.8159 60.1318 8.76385L60.1666 7.34776L57.1617 7.24414L57.1099 8.66023C57.2826 8.76385 57.369 8.95381 57.369 9.23012L57.2308 13.0121V13.1846C57.2138 13.4784 57.1099 13.6856 56.9199 13.7892L56.8681 15.2053L62.6532 15.3953L62.7913 11.5442L60.6154 11.4579L60.5811 12.7706ZM53.846 11.6653L53.9496 12.9606C53.9841 13.2541 53.9669 13.4786 53.9151 13.5995C53.8785 13.6739 53.8254 13.7389 53.7596 13.7895C53.6906 13.824 53.587 13.8586 53.4661 13.8758L53.1552 13.8931L52.8271 10.0938L52.7926 9.80025C52.7753 9.6964 52.7753 9.61029 52.7753 9.52394C52.7926 9.45486 52.7926 9.38579 52.8098 9.31671C52.8444 9.19582 52.9134 9.10948 53.0171 9.0404L52.8964 7.62431L50.0122 7.88335L49.8568 7.90062L49.9949 9.29944C49.9949 9.29944 50.0122 9.29944 50.0122 9.31671C50.2021 9.40306 50.2885 9.59302 50.323 9.85206L50.6512 13.6168L50.6684 13.7895C50.6857 14.0831 50.6166 14.2903 50.4267 14.4112L50.5648 15.8273L56.3328 15.3092L56.0047 11.4754L53.846 11.6653ZM64.104 9.00586C64.2595 9.14402 64.3285 9.35125 64.2937 9.62756L64.277 9.80025L63.845 13.2541L63.8102 13.5132C63.7759 13.824 63.6725 14.0137 63.4823 14.1003L63.3269 15.5164L66.3147 15.8791L66.4872 14.4975C66.3836 14.3421 66.3148 14.2212 66.2975 14.1176C66.2802 14.0313 66.2802 13.8586 66.3147 13.6168L66.7462 10.1111C66.7635 9.95568 66.781 9.83479 66.7983 9.76571C66.8156 9.67937 66.8331 9.62756 66.8503 9.59302C66.8846 9.50667 66.9707 9.43759 67.1089 9.36852L67.2818 7.98697L64.2772 7.60704L64.104 9.00586ZM71.1502 12.4425L70.7355 13.9276L71.1327 14.0485L70.9945 14.5321C70.9252 14.7911 70.8391 14.9811 70.7355 15.1365C70.6489 15.2747 70.4937 15.3092 70.269 15.2574C69.9756 15.1535 69.8722 14.9293 69.9756 14.5666L70.9425 11.1818C71.0806 10.6983 71.3051 10.5083 71.6335 10.5946C71.9273 10.6983 72.0134 10.9573 71.8925 11.4061L71.7544 11.8899L73.9474 12.5288L74.0514 12.5458L74.6038 10.6292C74.4141 10.3701 74.1896 10.1456 73.9476 9.93841C73.4127 9.47213 72.7735 9.12675 72.0139 8.91951C70.149 8.38416 69.0093 8.86747 68.5773 10.3701L67.6272 13.7549C67.1785 15.3092 67.8347 16.3454 69.5962 16.8462L69.7171 16.8807C69.9588 16.9498 70.2006 17.0189 70.4769 17.0534C70.7532 17.1052 71.0293 17.1395 71.2883 17.157C71.8064 17.1916 72.325 17.1052 72.8253 16.8632L73.8615 13.2196L71.1502 12.4425ZM77.8332 16.5183L77.6951 16.8464C77.5914 17.0882 77.4881 17.2436 77.4012 17.33C77.3151 17.4163 77.2115 17.4508 77.0906 17.4163C77.0213 17.399 76.9352 17.3818 76.8316 17.3472C76.7296 17.3255 76.6308 17.2907 76.5378 17.2436L77.194 15.7757L78.6276 16.4147L79.2493 14.9811L77.8332 14.3596L78.4033 13.0471L78.4722 13.0817C78.766 13.2198 78.9557 13.341 79.0075 13.4616C79.0764 13.5998 79.0418 13.807 78.9209 14.1008L78.8173 14.3253L80.6481 15.137L80.9072 15.2579L81.9949 12.8054L80.6481 12.2012L76.5378 10.3877L75.9681 11.6658C76.0717 11.8558 76.0717 12.0803 75.9508 12.3566L74.4311 15.7587L74.3963 15.845C74.2755 16.1213 74.12 16.2938 73.9471 16.3458C73.9303 16.3458 73.8955 16.3629 73.8783 16.3629L73.2913 17.6583L73.9471 17.9519L78.7485 20.076L79.9226 17.4511L77.8332 16.5183Z" fill="#D0D1D3"/>
</g>
<defs>
<clipPath id="clip0_1_222">
<rect width="117" height="117" fill="white"/>
</clipPath>
</defs>
</svg>
